<svg width="99" height="97" viewBox="0 0 99 97" fill="none" xmlns="http://www.w3.org/2000/svg">
<path d="M32.8176 12.0429C38.7221 -3.19158 60.2779 -3.19158 66.1824 12.0429C68.7209 18.5926 74.8572 23.0509 81.8708 23.4412C98.1842 24.349 104.845 44.8498 92.1811 55.173C86.7364 59.6113 84.3926 66.8249 86.1887 73.6158C90.3664 89.4113 72.9274 102.081 59.1959 93.2271C53.2924 89.4204 45.7076 89.4204 39.8041 93.2271C26.0726 102.081 8.63359 89.4113 12.8113 73.6158C14.6074 66.8249 12.2636 59.6113 6.81893 55.173C-5.84533 44.8498 0.815773 24.349 17.1292 23.4412C24.1428 23.0509 30.2791 18.5926 32.8176 12.0429Z" fill="#F66B0E"/>
</svg>
